<svg width="536" height="401" viewBox="0 0 536 401" fill="none" xmlns="http://www.w3.org/2000/svg">
<g clip-path="url(#clip0_82_3)">
<path d="M391.385 381.011H380.72L375.645 339.834H391.385V381.011Z" fill="#9E616A"/>
<path d="M397.014 399.507H389.366L388.001 392.279L384.504 399.507H364.22C363.247 399.507 362.3 399.196 361.517 398.619C360.734 398.042 360.155 397.23 359.866 396.301C359.577 395.372 359.592 394.374 359.909 393.454C360.226 392.534 360.828 391.74 361.628 391.187L377.827 379.988V372.681L394.866 373.699L397.014 399.507Z" fill="#2F2E41"/>
<path d="M454.746 367.538L446.187 373.908L417.568 343.898L430.199 334.496L454.746 367.538Z" fill="#9E616A"/>
<path d="M470.289 379.018L464.152 383.587L458.747 378.602L460.25 386.491L443.973 398.607C443.192 399.187 442.247 399.503 441.275 399.508C440.303 399.513 439.354 399.207 438.568 398.634C437.782 398.062 437.199 397.252 436.905 396.325C436.611 395.397 436.621 394.399 436.933 393.478L443.257 374.816L438.901 368.952L453.18 359.592L470.289 379.018Z" fill="#2F2E41"/>
<path d="M403.802 168.563C403.802 168.563 424.037 186.062 414.701 235.948L403.303 284.829L440.475 346.557L428.622 360.99L380.298 294.176L362.786 253.059L357.872 179.879L403.802 168.563Z" fill="#2F2E41"/>
<path d="M372.438 264.776L371.221 283.644L374.946 364.045L392.472 360.99L395.821 303.745L372.438 264.776Z" fill="#2F2E41"/>
<path d="M147.525 390.692L157.063 390.691L161.6 353.868L147.524 353.869L147.525 390.692Z" fill="#FFB6B6"/>
<path d="M145.093 387.575L147.777 387.575L158.258 383.308L163.875 387.574H163.876C167.05 387.574 170.095 388.837 172.339 391.084C174.584 393.33 175.845 396.378 175.846 399.555V399.945L145.093 399.946L145.093 387.575Z" fill="#2F2E41"/>
<path d="M184.485 384.676L193.788 386.778L206.317 351.86L192.587 348.757L184.485 384.676Z" fill="#FFB6B6"/>
<path d="M182.797 381.099L185.416 381.691L196.578 379.84L201.119 385.24L201.119 385.24C204.216 385.94 206.908 387.843 208.603 390.529C210.298 393.216 210.858 396.466 210.158 399.566L210.073 399.946L180.076 393.166L182.797 381.099Z" fill="#2F2E41"/>
<path d="M135.446 165.575C130.974 179.075 131.447 193.728 136.521 209.455L138.69 298.002C138.69 298.002 135.458 356.069 145.886 376.502H161.008L168.496 292.699L169.436 236.449L201.857 283.905L181.207 375.132L199.819 376.798L233.328 277.795L191.985 181.745L135.446 165.575Z" fill="#2F2E41"/>
<path d="M309.842 127.124C321.409 116.69 338.614 111.444 353.046 117.294C338.242 125.521 326.822 138.725 320.808 154.568C318.51 160.687 316.591 167.732 310.94 171.008C307.424 173.046 303.05 173.146 299.107 172.162C295.165 171.178 291.551 169.205 287.986 167.252L286.972 167.229C291.525 152.325 298.275 137.557 309.842 127.124Z" fill="#E6E6E6"/>
<path d="M352.965 117.611C340.184 119.265 328.247 124.907 318.852 133.738C316.795 135.603 315.046 137.781 313.667 140.191C312.399 142.583 311.795 145.27 311.916 147.975C311.979 150.499 312.335 153.073 311.783 155.568C311.482 156.841 310.915 158.036 310.12 159.075C309.325 160.113 308.32 160.972 307.17 161.594C304.346 163.219 301.107 163.731 297.921 164.122C294.385 164.556 290.705 164.95 287.644 166.936C287.273 167.176 286.921 166.586 287.292 166.346C292.618 162.892 299.357 164.149 305.084 161.843C307.757 160.767 310.121 158.879 310.958 156.024C311.69 153.527 311.325 150.872 311.24 148.317C311.083 145.68 311.573 143.045 312.668 140.642C313.92 138.169 315.583 135.928 317.586 134.013C322.027 129.631 327.129 125.975 332.705 123.18C339.05 119.954 345.9 117.838 352.959 116.924C353.396 116.868 353.399 117.555 352.965 117.611H352.965Z" fill="#FCF7FF"/>
<path d="M321.71 130.716C320.444 128.937 319.851 126.765 320.036 124.589C320.222 122.413 321.175 120.373 322.724 118.835C323.039 118.525 323.535 119 323.22 119.31C321.775 120.74 320.887 122.64 320.719 124.667C320.55 126.694 321.11 128.714 322.299 130.364C322.557 130.723 321.966 131.073 321.71 130.716V130.716Z" fill="#FCF7FF"/>
<path d="M311.716 146.699C316.109 147.478 320.633 146.571 324.387 144.16C324.759 143.92 325.11 144.51 324.739 144.749C320.827 147.252 316.117 148.186 311.548 147.365C311.113 147.287 311.283 146.621 311.716 146.699V146.699Z" fill="#FCF7FF"/>
<path d="M339.106 120.863C339.453 121.653 339.99 122.345 340.67 122.877C341.349 123.408 342.15 123.762 343.001 123.907C343.437 123.98 343.266 124.645 342.833 124.573C341.894 124.408 341.01 124.016 340.258 123.431C339.505 122.846 338.908 122.085 338.517 121.215C338.473 121.136 338.461 121.043 338.483 120.956C338.505 120.868 338.56 120.793 338.635 120.744C338.714 120.698 338.807 120.684 338.895 120.707C338.983 120.729 339.059 120.785 339.106 120.863V120.863Z" fill="#FCF7FF"/>
<path d="M368.938 167.61C368.664 167.572 368.39 167.534 368.113 167.501C364.431 167.012 360.715 166.823 357.002 166.936C356.715 166.94 356.424 166.949 356.138 166.961C347.196 167.329 338.401 169.356 330.198 172.938C326.936 174.366 323.786 176.041 320.778 177.947C316.622 180.581 312.327 183.767 307.682 184.841C307.198 184.959 306.708 185.046 306.214 185.103L287.023 168.469C286.998 168.41 286.97 168.354 286.945 168.294L286.148 167.665C286.297 167.556 286.453 167.446 286.601 167.337C286.687 167.273 286.777 167.213 286.863 167.15C286.921 167.108 286.98 167.067 287.03 167.026C287.05 167.013 287.069 166.999 287.085 166.99C287.136 166.949 287.187 166.917 287.233 166.88C288.105 166.263 288.982 165.65 289.865 165.043C289.868 165.039 289.868 165.039 289.877 165.038C296.56 160.345 303.777 156.462 311.374 153.471C311.602 153.384 311.834 153.294 312.07 153.215C315.492 151.942 319.012 150.95 322.595 150.251C324.558 149.874 326.539 149.597 328.53 149.421C333.676 148.976 338.859 149.343 343.891 150.51C353.92 152.838 363.095 158.351 368.529 166.949C368.668 167.169 368.803 167.385 368.938 167.61Z" fill="#E6E6E6"/>
<path d="M368.684 167.816C357.484 161.433 344.559 158.745 331.746 160.134C328.982 160.383 326.275 161.068 323.725 162.161C321.274 163.307 319.175 165.089 317.645 167.321C316.177 169.374 314.913 171.644 312.972 173.304C311.965 174.139 310.794 174.752 309.535 175.102C308.275 175.452 306.956 175.531 305.664 175.335C302.432 174.931 299.537 173.387 296.759 171.78C293.674 169.995 290.499 168.092 286.86 167.833C286.419 167.801 286.494 167.118 286.934 167.15C293.264 167.601 297.889 172.667 303.849 174.277C306.629 175.029 309.653 174.946 312.039 173.171C314.125 171.618 315.431 169.278 316.899 167.187C318.36 164.987 320.336 163.179 322.656 161.92C325.143 160.7 327.819 159.912 330.57 159.591C336.751 158.769 343.024 158.924 349.157 160.052C356.164 161.301 362.906 163.74 369.092 167.264C369.474 167.482 369.064 168.033 368.684 167.816L368.684 167.816Z" fill="#FCF7FF"/>
<path d="M335.846 159.444C335.905 157.26 336.737 155.169 338.195 153.543C339.652 151.917 341.639 150.863 343.802 150.568C344.239 150.51 344.35 151.189 343.912 151.247C341.898 151.517 340.047 152.499 338.693 154.016C337.339 155.533 336.571 157.484 336.528 159.517C336.518 159.959 335.836 159.883 335.846 159.444Z" fill="#FCF7FF"/>
<path d="M318.253 166.182C321.291 169.451 325.449 171.454 329.897 171.791C330.338 171.824 330.263 172.507 329.823 172.474C325.195 172.115 320.873 170.022 317.718 166.613C317.418 166.288 317.954 165.859 318.253 166.182Z" fill="#FCF7FF"/>
<path d="M355.662 162.06C355.463 162.9 355.476 163.777 355.699 164.61C355.923 165.444 356.349 166.21 356.941 166.838C357.245 167.159 356.709 167.587 356.406 167.268C355.756 166.571 355.286 165.726 355.037 164.805C354.788 163.884 354.769 162.916 354.98 161.986C354.992 161.897 355.038 161.816 355.109 161.759C355.179 161.703 355.268 161.675 355.358 161.682C355.448 161.692 355.531 161.737 355.588 161.808C355.645 161.879 355.671 161.97 355.662 162.06V162.06Z" fill="#FCF7FF"/>
<path d="M31.8562 390.023C30.9553 393.406 28.5881 396.224 25.7301 398.276C25.2642 398.612 24.7858 398.923 24.3012 399.215C24.152 399.302 24.0029 399.395 23.8476 399.476C23.6798 399.576 23.5121 399.669 23.3443 399.756H9.90556C9.66325 399.265 9.42716 398.767 9.19107 398.276C3.43159 386.161 -0.613092 373.088 0.0765546 359.773C0.350162 354.609 1.43414 349.519 3.28869 344.692C6.97923 335.071 13.7142 326.744 22.9778 322.552C23.2077 322.446 23.45 322.34 23.6861 322.241C23.6115 322.508 23.537 322.77 23.4624 323.037C22.4686 326.621 21.7663 330.279 21.3624 333.976C21.3251 334.263 21.294 334.549 21.2692 334.841C20.3865 343.758 21.1703 352.761 23.5804 361.39C23.5867 361.409 23.5928 361.434 23.5991 361.452C24.1272 363.362 24.7402 365.242 25.4381 367.093C25.9849 368.555 26.5751 369.998 27.2213 371.416C29.9177 377.367 33.5337 383.711 31.8562 390.023Z" fill="#E6E6E6"/>
<path d="M23.8538 322.521C23.7233 322.695 23.5928 322.863 23.4624 323.037C20.7335 326.657 18.4163 330.57 16.5535 334.704C16.4541 334.909 16.3609 335.115 16.2801 335.326C13.7278 341.099 12.0887 347.234 11.4215 353.511C11.4143 353.554 11.4102 353.598 11.4091 353.641C11.2538 355.109 11.1606 356.589 11.1233 358.069C10.9852 360.844 11.285 363.623 12.0118 366.304C12.6745 368.493 13.8357 370.498 15.4041 372.162C15.5594 372.33 15.7147 372.498 15.8825 372.659C16.0068 372.79 16.1434 372.921 16.2739 373.045C17.5289 374.245 18.902 375.359 20.0825 376.646C20.6236 377.223 21.1122 377.848 21.5426 378.512C22.2294 379.625 22.6731 380.871 22.8445 382.168C23.0158 383.465 22.9109 384.783 22.5367 386.037C21.6917 389.184 19.7594 391.839 17.7837 394.37C16.7958 395.639 15.7769 396.92 14.8946 398.276C14.5716 398.761 14.2733 399.252 14 399.756H13.2171C13.4781 399.252 13.7639 398.761 14.0745 398.276C16.3423 394.7 19.5669 391.628 21.2382 387.691C22.3689 385.036 22.7107 382.025 21.2817 379.42C20.8629 378.662 20.3561 377.956 19.7719 377.318C18.6349 376.03 17.2743 374.929 16.0379 373.766C15.7272 373.474 15.4228 373.176 15.1308 372.865C13.5826 371.29 12.3879 369.403 11.6266 367.33C10.7644 364.696 10.3568 361.935 10.4213 359.164C10.4213 357.398 10.5145 355.619 10.6884 353.853C10.7071 353.629 10.7319 353.399 10.7568 353.169C12.0274 342.054 16.2471 331.483 22.9778 322.552C23.1021 322.378 23.2325 322.21 23.363 322.042C23.6302 321.694 24.121 322.179 23.8538 322.521Z" fill="#FCF7FF"/>
<path d="M11.0076 353.912C8.85556 353.55 6.90211 352.434 5.49607 350.764C4.09003 349.093 3.32297 346.977 3.33186 344.793C3.33305 344.704 3.36873 344.619 3.43139 344.555C3.49404 344.492 3.57879 344.456 3.66775 344.454C3.75672 344.452 3.84297 344.484 3.90832 344.545C3.97368 344.605 4.01305 344.689 4.01813 344.778C4.0061 346.812 4.72081 348.783 6.03328 350.336C7.34576 351.889 9.16953 352.921 11.1754 353.246C11.6113 353.317 11.4409 353.982 11.0076 353.912V353.912Z" fill="#FCF7FF"/>
<path d="M15.2316 372.287C18.8878 369.729 21.4464 365.885 22.3972 361.523C22.4911 361.091 23.1564 361.259 23.0626 361.691C22.0647 366.229 19.394 370.223 15.5835 372.877C15.2201 373.13 14.8703 372.538 15.2317 372.287L15.2316 372.287Z" fill="#FCF7FF"/>
<path d="M16.3479 334.631C17.1514 334.945 18.0202 335.054 18.8762 334.949C19.7322 334.843 20.5486 334.527 21.2521 334.027C21.6121 333.77 21.9616 334.361 21.6039 334.617C20.8241 335.165 19.922 335.514 18.9765 335.632C18.031 335.751 17.0709 335.636 16.18 335.297C16.0934 335.273 16.0194 335.216 15.9732 335.138C15.927 335.061 15.912 334.969 15.9313 334.88C15.9539 334.792 16.0104 334.717 16.0884 334.67C16.1665 334.624 16.2597 334.61 16.3479 334.631V334.631Z" fill="#FCF7FF"/>
<path d="M70.4639 346.57C70.2465 346.738 70.0228 346.906 69.8053 347.08C66.8556 349.34 64.0941 351.836 61.5482 354.543C61.3494 354.748 61.1506 354.96 60.958 355.171L60.9518 355.177C54.9152 361.737 50.1421 369.357 46.8731 377.653L46.8544 377.709C46.8482 377.728 46.842 377.74 46.8358 377.759C45.54 381.08 44.4954 384.493 43.7106 387.971C42.9526 391.366 42.3313 395.005 41.1446 398.276C40.9645 398.78 40.7656 399.277 40.5544 399.756H12.9313C13.0245 399.265 13.1239 398.767 13.2233 398.276C14.6285 391.07 16.8246 384.041 19.7718 377.318C19.8712 377.094 19.9706 376.87 20.0825 376.646C21.6039 373.324 23.393 370.131 25.4319 367.1C25.4319 367.099 25.432 367.098 25.4323 367.097C25.4326 367.096 25.4331 367.096 25.4337 367.095C25.4342 367.094 25.4349 367.094 25.4357 367.094C25.4365 367.093 25.4373 367.093 25.4381 367.093C26.5577 365.439 27.7604 363.843 29.0417 362.311C32.3645 358.353 36.2896 354.945 40.6725 352.211C40.6973 352.192 40.7284 352.18 40.7532 352.161C49.4763 346.744 59.8148 344.163 69.6997 346.396H69.7059C69.9607 346.452 70.2092 346.508 70.4639 346.57Z" fill="#E6E6E6"/>
<path d="M70.4329 346.9C70.2217 346.956 70.0104 347.018 69.8054 347.08C65.4511 348.326 61.2482 350.051 57.2737 352.223C57.0749 352.329 56.8761 352.441 56.6773 352.553C51.1847 355.622 46.1989 359.521 41.8965 364.114C41.8931 364.118 41.8909 364.122 41.8903 364.127C41.8406 364.177 41.7846 364.233 41.7412 364.282C40.7471 365.352 39.7903 366.465 38.8832 367.61C37.1088 369.743 35.6791 372.142 34.6459 374.718C33.8564 376.865 33.5777 379.167 33.832 381.441C33.8506 381.671 33.8817 381.895 33.9127 382.125C33.9376 382.305 33.9624 382.486 33.9935 382.672C34.4036 385.166 35.1118 387.666 34.913 390.21C34.7921 391.513 34.3968 392.776 33.7532 393.916C33.1096 395.055 32.2323 396.045 31.179 396.821C30.463 397.375 29.6976 397.862 28.8926 398.276C27.7416 398.87 26.5423 399.365 25.3077 399.756H22.866C23.1953 399.663 23.5183 399.57 23.8476 399.476C25.0161 399.146 26.1635 398.745 27.2834 398.276C27.9232 398.008 28.5457 397.701 29.1473 397.356C31.645 395.919 33.7264 393.717 34.1613 390.776C34.5403 388.201 33.8071 385.626 33.3722 383.108C33.2976 382.672 33.2293 382.243 33.192 381.814C32.8954 379.633 33.0756 377.413 33.7201 375.309C34.6141 372.684 35.9506 370.231 37.6716 368.057C38.7362 366.642 39.8727 365.283 41.0764 363.984C41.2255 363.816 41.3808 363.648 41.5423 363.48C45.9353 358.854 51.0075 354.926 56.5841 351.832H56.5903C60.7367 349.521 65.1356 347.697 69.6998 346.396H69.706C69.911 346.334 70.1223 346.272 70.3273 346.216C70.756 346.104 70.8554 346.782 70.4329 346.9Z" fill="#FCF7FF"/>
<path d="M41.2965 364.22C39.7959 362.634 38.9073 360.566 38.7893 358.385C38.6714 356.204 39.3319 354.052 40.6528 352.313C40.9212 351.962 41.4786 352.363 41.2097 352.715C39.9767 354.331 39.3617 356.336 39.4757 358.367C39.5896 360.398 40.425 362.321 41.8312 363.789C42.1363 364.109 41.5999 364.537 41.2965 364.22H41.2965Z" fill="#FCF7FF"/>
<path d="M33.6168 381.437C38.0747 381.598 42.4293 380.071 45.8125 377.161C46.1475 376.872 46.5773 377.408 46.2427 377.696C42.7165 380.718 38.1815 382.298 33.543 382.12C33.1009 382.103 33.1771 381.42 33.6168 381.437V381.437Z" fill="#FCF7FF"/>
<path d="M57.1572 352.044C57.6101 352.779 58.2382 353.389 58.9851 353.821C59.732 354.253 60.5743 354.492 61.4364 354.517C61.8785 354.529 61.8018 355.212 61.3625 355.2C60.4102 355.168 59.4803 354.902 58.654 354.427C57.8277 353.952 57.1303 353.282 56.6225 352.475C56.5683 352.403 56.5435 352.312 56.5532 352.223C56.5629 352.133 56.6064 352.05 56.6747 351.992C56.7458 351.935 56.8364 351.909 56.9267 351.919C57.017 351.928 57.0999 351.973 57.1572 352.044V352.044Z" fill="#FCF7FF"/>
<path d="M283.552 107.671C282.914 108.511 282.1 109.2 281.168 109.691C280.235 110.182 279.206 110.462 278.154 110.511C277.102 110.561 276.051 110.379 275.076 109.978C274.102 109.578 273.227 108.968 272.513 108.192L249.028 118.417L251.315 105.293L273.267 97.596C274.648 96.4823 276.39 95.9144 278.162 96.0001C279.933 96.0858 281.612 96.8191 282.88 98.061C284.148 99.3029 284.916 100.967 285.04 102.738C285.164 104.51 284.634 106.265 283.552 107.671V107.671Z" fill="#FFB8B8"/>
<path d="M267.879 111.769L213.33 136.091L213.213 136.049L151.041 113.872C146.41 111.45 142.88 107.347 141.172 102.403C139.465 97.4599 139.71 92.0503 141.858 87.2819V87.2819C143.048 84.6474 144.782 82.295 146.946 80.3797C149.11 78.4644 151.655 77.0296 154.412 76.1697C157.17 75.3098 160.079 75.0442 162.947 75.3906C165.814 75.737 168.576 76.6874 171.051 78.1793L217.318 106.078L262.183 100.257L267.879 111.769Z" fill="#E6E6E6"/>
<path d="M536 400.26C536 400.357 535.981 400.453 535.944 400.543C535.907 400.633 535.853 400.715 535.784 400.784C535.715 400.853 535.634 400.907 535.544 400.944C535.454 400.981 535.358 401 535.261 401H0.759972C0.563884 401 0.375835 400.922 0.23718 400.783C0.0985245 400.644 0.0206299 400.456 0.0206299 400.26C0.0206299 400.064 0.0985245 399.875 0.23718 399.737C0.375835 399.598 0.563884 399.52 0.759972 399.52H535.261C535.358 399.519 535.454 399.538 535.544 399.576C535.634 399.613 535.715 399.667 535.784 399.736C535.853 399.805 535.907 399.886 535.944 399.976C535.981 400.066 536 400.163 536 400.26Z" fill="#CCCCCC"/>
<path d="M194.681 184.581L139.692 175.777C138.25 175.315 136.925 174.545 135.808 173.522C134.691 172.499 133.808 171.245 133.22 169.848C132.633 168.451 132.354 166.943 132.404 165.428C132.453 163.913 132.829 162.427 133.507 161.071L136.001 156.078L135.032 103.622C134.915 96.7989 136.596 90.0651 139.904 84.0984C143.213 78.1316 148.033 73.1423 153.88 69.6324L159.242 66.4229L161.952 59.5342L186.941 60.1443L187.014 69.179L195.963 83.4632L195.963 83.5225L195.401 161.27L192.935 169.293L196.664 178.626L194.681 184.581Z" fill="#E6E6E6"/>
<path d="M176.735 50.9683C189.275 50.9683 199.44 40.7929 199.44 28.241C199.44 15.6891 189.275 5.51379 176.735 5.51379C164.196 5.51379 154.03 15.6891 154.03 28.241C154.03 40.7929 164.196 50.9683 176.735 50.9683Z" fill="#FFB8B8"/>
<path d="M153.092 33.1954C152.415 30.3397 152.726 26.3211 153.109 23.4457C154.112 15.9074 158.295 8.74079 164.649 4.49579C165.853 3.57982 167.285 3.01032 168.789 2.84868C170.292 2.78587 171.922 3.59135 172.383 5.02475C172.762 4.0787 173.33 3.22038 174.053 2.50276C174.776 1.78513 175.638 1.22344 176.587 0.852341C178.492 0.121816 180.54 -0.154451 182.57 0.0454387C186.505 0.370101 190.279 1.75505 193.491 4.0533C196.703 6.35156 199.233 9.47738 200.814 13.099C201.42 14.5411 203.114 9.21445 203.882 10.577C204.588 11.9933 205.82 13.0767 207.314 13.5954C208.82 14.0159 209.431 20.2252 210.024 18.7773C210.484 19.8473 210.665 21.0164 210.552 22.1757C210.439 23.3349 210.035 24.4466 209.377 25.4073C208.718 26.368 207.828 27.1463 206.789 27.6698C205.749 28.1934 204.594 28.4451 203.432 28.4016C201.899 28.3442 200.434 27.78 198.92 27.5371C193.505 26.6686 187.761 30.5989 186.604 35.9644C186.189 34.4127 185.527 32.9383 184.643 31.5979C184.194 30.9313 183.593 30.3815 182.889 29.9944C182.185 29.6073 181.399 29.394 180.596 29.3723C179.056 29.43 177.702 30.4382 176.702 31.613C175.702 32.7879 174.952 34.1585 173.945 35.327C170.99 38.7556 166.994 46.7513 162.783 46.1682C159.46 45.708 154.017 37.0946 153.092 33.1954Z" fill="#2F2E41"/>
<path d="M313.984 133.425C314.143 132.389 313.93 131.33 313.384 130.436C312.837 129.542 311.992 128.871 310.998 128.541L249.853 108.157C249.267 107.96 248.646 107.889 248.031 107.947L232.705 109.398L223.911 110.233L207.684 111.768C206.704 111.862 205.783 112.278 205.065 112.952C204.348 113.627 203.874 114.52 203.718 115.493L195.478 167.011C195.323 168.015 195.514 169.043 196.02 169.925C196.527 170.806 197.318 171.489 198.265 171.859L260.047 195.731C260.337 195.843 260.638 195.924 260.946 195.972C261.393 196.045 261.849 196.048 262.298 195.982L302.22 190.06C303.161 189.923 304.034 189.487 304.708 188.815C305.382 188.142 305.822 187.271 305.962 186.329L313.984 133.425Z" fill="#FCF7FF"/>
<path d="M199.665 168.229L261.447 192.1C261.538 192.135 261.636 192.147 261.731 192.133L301.648 186.211C301.767 186.195 301.876 186.14 301.961 186.056C302.046 185.972 302.101 185.862 302.117 185.743L310.144 132.839C310.163 132.71 310.136 132.579 310.068 132.467C310 132.356 309.895 132.272 309.772 132.229L309.361 132.09L248.624 111.849C248.596 111.839 248.568 111.832 248.538 111.828C248.491 111.82 248.443 111.817 248.396 111.821L211.015 115.362L208.049 115.64C207.927 115.653 207.813 115.706 207.724 115.79C207.635 115.874 207.576 115.985 207.555 116.105L199.317 167.621C199.297 167.747 199.321 167.876 199.384 167.987C199.447 168.097 199.546 168.183 199.665 168.229V168.229Z" fill="#816EFF"/>
<path d="M211.015 115.362L248.396 111.821C248.443 111.817 248.491 111.82 248.539 111.828C248.568 111.832 248.596 111.839 248.624 111.849L309.361 132.09L293.34 133.787L287.344 134.42L270.283 136.224C270.233 136.226 270.183 136.226 270.133 136.222C270.103 136.213 270.072 136.204 270.036 136.194L211.015 115.362Z" fill="#2F2E41"/>
<path d="M198.263 171.862L260.046 195.733C260.337 195.845 260.639 195.924 260.947 195.969C261.395 196.043 261.851 196.049 262.3 195.986L302.217 190.064C303.159 189.926 304.032 189.489 304.706 188.817C305.381 188.144 305.821 187.272 305.962 186.33L313.983 133.425C314.102 132.645 314.012 131.848 313.723 131.114C313.682 131.016 313.642 130.919 313.594 130.827C313.276 130.156 312.792 129.579 312.188 129.149C311.824 128.888 311.423 128.683 310.998 128.542L310.925 128.516L249.856 108.156C249.607 108.076 249.352 108.014 249.094 107.971C248.741 107.921 248.383 107.914 248.029 107.95L232.705 109.396L223.912 110.235L207.682 111.769C207.018 111.831 206.377 112.043 205.807 112.39C205.763 112.411 205.72 112.436 205.681 112.465C205.653 112.484 205.626 112.504 205.6 112.526C205.102 112.866 204.679 113.304 204.355 113.814C204.032 114.323 203.816 114.893 203.72 115.489L195.475 167.01C195.319 168.016 195.51 169.044 196.017 169.927C196.524 170.809 197.317 171.492 198.263 171.862V171.862ZM204.813 115.668C204.914 115.051 205.187 114.475 205.602 114.007C205.728 113.856 205.869 113.719 206.022 113.597C206.441 113.258 206.937 113.027 207.466 112.923C207.57 112.902 207.676 112.887 207.782 112.878L235.11 110.294L248.135 109.054C248.224 109.043 248.305 109.045 248.386 109.04C248.584 109.036 248.781 109.051 248.975 109.084C249.154 109.107 249.33 109.149 249.5 109.209L310.641 129.595C310.69 129.612 310.732 129.628 310.78 129.645C311.336 129.852 311.824 130.208 312.192 130.674C312.483 131.03 312.695 131.444 312.815 131.888C312.935 132.333 312.96 132.797 312.889 133.252L304.861 186.162C304.756 186.868 304.427 187.521 303.922 188.025C303.418 188.529 302.765 188.857 302.06 188.962L262.137 194.883C261.566 194.965 260.983 194.899 260.445 194.69L198.662 170.826C197.954 170.546 197.362 170.035 196.982 169.374C196.603 168.713 196.459 167.943 196.575 167.19L204.813 115.668Z" fill="#494454"/>
<path d="M205.467 112.807C205.5 112.713 205.557 112.63 205.634 112.567C205.659 112.547 205.686 112.528 205.714 112.512C205.74 112.502 205.766 112.486 205.792 112.476C205.916 112.426 206.054 112.423 206.18 112.469L207.466 112.923L270.289 135.106L284.993 133.551L293.22 132.683L310.635 130.837L312.192 130.674L312.495 130.64C312.626 130.628 312.756 130.662 312.864 130.737C312.972 130.811 313.051 130.921 313.087 131.047C313.095 131.076 313.101 131.106 313.103 131.136C313.116 131.255 313.09 131.376 313.028 131.48C312.966 131.583 312.873 131.664 312.761 131.709C312.712 131.73 312.66 131.743 312.607 131.751L310.489 131.973L293.34 133.787L287.344 134.42L270.282 136.224C270.233 136.227 270.183 136.226 270.133 136.222C270.103 136.213 270.072 136.204 270.036 136.194L206.022 113.597L205.805 113.52C205.755 113.504 205.709 113.478 205.668 113.445C205.572 113.374 205.5 113.273 205.464 113.159C205.427 113.044 205.429 112.921 205.467 112.807Z" fill="#494454"/>
<path d="M261.115 196.131C260.971 196.108 260.841 196.028 260.755 195.91C260.668 195.792 260.632 195.644 260.654 195.499L269.673 135.588C269.695 135.442 269.774 135.311 269.893 135.223C270.011 135.136 270.16 135.099 270.305 135.121L270.31 135.122C270.455 135.145 270.584 135.224 270.671 135.343C270.757 135.461 270.793 135.609 270.772 135.753L261.752 195.665C261.73 195.811 261.651 195.942 261.533 196.029C261.414 196.117 261.266 196.153 261.12 196.132L261.115 196.131Z" fill="#494454"/>
<path d="M283.977 192.33L277.979 192.964L284.995 133.55C284.995 133.55 293.007 132.098 293.221 132.68C293.353 133.028 284.035 191.949 283.977 192.33Z" fill="#494454"/>
<path d="M205.807 113.519L205.645 140.614L253.564 158.891L270.772 135.753L205.807 113.519Z" fill="#494454"/>
<path d="M312.194 130.675C311.794 130.171 311.254 129.795 310.643 129.595L249.503 109.21C249.331 109.152 249.155 109.109 248.976 109.081C248.781 109.048 248.583 109.033 248.385 109.037L248.485 108.417L249.097 107.973L263.615 97.4512L312.102 112.326L312.186 129.149L312.194 130.675Z" fill="#494454"/>
<path d="M208.249 157.016C208.318 157.022 208.385 157.037 208.451 157.058L227.211 163.226C227.445 163.303 227.64 163.47 227.752 163.691C227.863 163.912 227.883 164.168 227.806 164.403C227.728 164.638 227.561 164.833 227.341 164.945C227.12 165.056 226.864 165.076 226.629 164.998L207.87 158.831C207.652 158.759 207.468 158.61 207.354 158.411C207.239 158.213 207.202 157.978 207.248 157.754C207.295 157.529 207.423 157.33 207.608 157.194C207.792 157.057 208.02 156.994 208.249 157.016H208.249Z" fill="#FCF7FF"/>
<path d="M283.937 270.678C288.055 270.678 291.393 267.337 291.393 263.215C291.393 259.094 288.055 255.752 283.937 255.752C279.82 255.752 276.482 259.094 276.482 263.215C276.482 267.337 279.82 270.678 283.937 270.678Z" fill="#F2F2F2"/>
<path d="M93.8187 298.042C97.9363 298.042 101.274 294.701 101.274 290.58C101.274 286.458 97.9363 283.117 93.8187 283.117C89.701 283.117 86.363 286.458 86.363 290.58C86.363 294.701 89.701 298.042 93.8187 298.042Z" fill="#F2F2F2"/>
<path d="M249.144 51.1435C253.262 51.1435 256.6 47.8022 256.6 43.6805C256.6 39.5589 253.262 36.2176 249.144 36.2176C245.027 36.2176 241.689 39.5589 241.689 43.6805C241.689 47.8022 245.027 51.1435 249.144 51.1435Z" fill="#F2F2F2"/>
<path d="M261.377 167.992C260.411 168.412 259.364 168.615 258.311 168.587C257.258 168.558 256.223 168.299 255.281 167.827C254.339 167.355 253.512 166.682 252.857 165.856C252.203 165.029 251.737 164.069 251.494 163.043L226.013 160.466L234.419 150.139L257.328 154.169C259.077 153.874 260.873 154.231 262.377 155.173C263.88 156.115 264.987 157.576 265.486 159.28C265.985 160.984 265.842 162.812 265.085 164.417C264.328 166.023 263.008 167.295 261.377 167.992V167.992Z" fill="#FFB8B8"/>
<path d="M245.705 163.895L186.241 158.411L186.159 158.317L142.761 108.541C139.905 104.161 138.829 98.8539 139.755 93.7062C140.68 88.5585 143.537 83.9597 147.739 80.8514V80.8514C150.065 79.1359 152.726 77.9328 155.55 77.3213C158.373 76.7097 161.294 76.7037 164.119 77.3035C166.945 77.9033 169.612 79.0953 171.944 80.8012C174.276 82.507 176.221 84.688 177.651 87.2004L204.381 134.182L246.36 151.065L245.705 163.895Z" fill="#E6E6E6"/>
<path d="M394.956 68.1719C393.479 57.3296 391.627 45.6888 383.988 37.8619C381.563 35.3784 378.662 33.4121 375.458 32.0813C372.254 30.7506 368.815 30.0831 365.346 30.1191C361.878 30.155 358.452 30.8936 355.277 32.2904C352.101 33.6873 349.241 35.7133 346.869 38.2464C341.307 44.1849 338.851 52.5235 338.627 60.6601C338.402 68.7966 340.212 76.8427 342.221 84.7302C352.849 84.9427 363.398 82.8642 373.153 78.6359C375.592 77.5761 377.992 76.378 380.569 75.7214C383.146 75.0648 384.983 76.717 387.38 77.869L388.696 75.3469C389.773 77.3536 393.109 76.7588 394.319 74.8293C395.529 72.8999 395.264 70.429 394.956 68.1719Z" fill="#2F2E41"/>
<path d="M352.828 128.689L309.414 129.619C308.747 128.465 307.76 127.53 306.572 126.928C305.384 126.326 304.047 126.082 302.724 126.227C301.4 126.371 300.147 126.898 299.117 127.742C298.087 128.586 297.324 129.712 296.922 130.983C296.519 132.253 296.494 133.613 296.85 134.897C297.205 136.182 297.926 137.335 298.924 138.216C299.923 139.098 301.156 139.67 302.473 139.864C303.79 140.057 305.135 139.862 306.344 139.304C312.102 139.632 357.15 146.032 359.837 141.907C362.565 137.721 377.124 122.948 377.124 122.948L365.933 106.999L352.828 128.689Z" fill="#9E616A"/>
<path d="M363.407 78.8991C374.672 78.8991 383.804 69.7579 383.804 58.4816C383.804 47.2054 374.672 38.0642 363.407 38.0642C352.142 38.0642 343.009 47.2054 343.009 58.4816C343.009 69.7579 352.142 78.8991 363.407 78.8991Z" fill="#9E616A"/>
<path d="M396.077 97.7669C393.673 92.9783 392.505 87.0625 387.38 85.5101C383.92 84.4618 369.924 86.0328 366.77 87.8024C361.524 90.746 366.278 96.2618 363.183 101.424C359.818 107.035 350.675 118.296 347.31 123.907C344.997 127.765 352.788 139.088 351.538 143.409C350.287 147.73 350.227 152.581 352.357 156.542C354.264 160.088 351.505 163.225 353.423 166.765C355.417 170.446 357.865 184.211 356.009 187.964L354.766 191.696C367.097 192.421 377.465 177.675 389.719 176.122C392.763 175.736 395.923 175.232 398.431 173.464C402.126 170.859 403.587 166.132 404.499 161.701C408.892 140.046 405.928 117.542 396.077 97.7669V97.7669Z" fill="#494454"/>
<path d="M414.564 148.329C412.846 143.637 409.737 123.119 409.737 123.119L390.275 122.548L399.79 146.039L373.826 182.422C373.826 182.422 373.874 182.502 373.961 182.645C372.596 182.426 371.197 182.624 369.946 183.214C368.695 183.804 367.652 184.758 366.952 185.952C366.252 187.145 365.928 188.522 366.023 189.903C366.118 191.284 366.627 192.603 367.483 193.69C368.34 194.776 369.504 195.578 370.824 195.991C372.143 196.405 373.557 196.409 374.879 196.005C376.201 195.601 377.371 194.807 378.235 193.726C379.098 192.646 379.616 191.329 379.72 189.949C379.816 190.004 379.928 190.024 380.036 190.005C380.145 189.986 380.244 189.931 380.316 189.847C383.205 186.218 416.282 153.022 414.564 148.329Z" fill="#9E616A"/>
<path d="M416.543 135.372C414.756 127.825 412.957 120.237 409.945 113.091C406.933 105.945 402.622 99.1961 396.558 94.3684C394.619 92.825 392.452 91.4627 390.021 90.9828C387.591 90.5029 384.852 91.04 383.146 92.837C380.414 95.7124 381.236 100.328 382.238 104.167C385.192 115.486 388.146 126.805 391.099 138.124C399.63 137.219 408.16 136.314 416.69 135.409L416.543 135.372Z" fill="#494454"/>
<path d="M388.4 61.3136C387.649 56.3744 386.865 51.3939 385.1 46.7431C383.335 42.0923 380.491 37.7363 376.41 35.1017C369.949 30.9304 361.585 31.7349 354.341 34.1343C348.739 35.9899 343.271 38.8102 339.321 43.3444C335.37 47.8786 333.151 54.3484 334.621 60.277C342.348 58.4496 350.074 56.6223 357.801 54.7949L356.955 55.3932C359.492 56.6595 361.708 58.4877 363.433 60.7391C365.159 62.9905 366.35 65.6058 366.915 68.3866C367.468 71.2012 367.388 74.1035 366.683 76.8836C365.977 79.6638 364.663 82.2522 362.836 84.4616C368.106 82.5904 373.375 80.7192 378.645 78.8481C381.898 77.6931 385.379 76.3623 387.307 73.3998C389.544 69.9651 389.024 65.4126 388.4 61.3136Z" fill="#2F2E41"/>
</g>
<defs>
<clipPath id="clip0_82_3">
<rect width="536" height="401" fill="white"/>
</clipPath>
</defs>
</svg>
